HIERARCHY
ROOT Hips
{
	OFFSET 0.000000 0.000000 0.000000
	CHANNELS 6 Xposition Yposition Zposition Zrotation Yrotation Xrotation 
	JOINT LHipJoint
	{
		OFFSET 0.000000 0.000000 0.000000
		CHANNELS 3 Zrotation Yrotation Xrotation
		JOINT LeftUpLeg
		{
			OFFSET 1.363060 -1.794630 0.839290
			CHANNELS 3 Zrotation Yrotation Xrotation
			JOINT LeftLeg
			{
				OFFSET 2.448110 -6.726130 0.000000
				CHANNELS 3 Zrotation Yrotation Xrotation
				JOINT LeftFoot
				{
					OFFSET 2.562200 -7.039590 0.000000
					CHANNELS 3 Zrotation Yrotation Xrotation
					JOINT LeftToeBase
					{
						OFFSET 0.157640 -0.433110 2.322550
						CHANNELS 3 Zrotation Yrotation Xrotation
						End Site
						{
							OFFSET 0.000000 0.000000 0.000000
						}
					}
				}
			}
		}
	}
	JOINT RHipJoint
	{
		OFFSET 0.000000 0.000000 0.000000
		CHANNELS 3 Zrotation Yrotation Xrotation
		JOINT RightUpLeg
		{
			OFFSET -1.305520 -1.794630 0.839290
			CHANNELS 3 Zrotation Yrotation Xrotation
			JOINT RightLeg
			{
				OFFSET -2.542530 -6.985550 0.000000
				CHANNELS 3 Zrotation Yrotation Xrotation
				JOINT RightFoot
				{
					OFFSET -2.568260 -7.056230 0.000000
					CHANNELS 3 Zrotation Yrotation Xrotation
					JOINT RightToeBase
					{
						OFFSET -0.164730 -0.452590 2.363150
						CHANNELS 3 Zrotation Yrotation Xrotation
						End Site
						{
							OFFSET 0.000000 0.000000 0.000000
						}
					}
				}
			}
		}
	}
	JOINT LowerBack
	{
		OFFSET 0.000000 0.000000 0.000000
		CHANNELS 3 Zrotation Yrotation Xrotation
		JOINT Spine
		{
			OFFSET 0.028270 2.035590 -0.193380
			CHANNELS 3 Zrotation Yrotation Xrotation
			JOINT Spine1
			{
				OFFSET 0.056720 2.048850 -0.042750
				CHANNELS 3 Zrotation Yrotation Xrotation
				JOINT Neck
				{
					OFFSET 0.000000 0.000000 0.000000
					CHANNELS 3 Zrotation Yrotation Xrotation
					JOINT Neck1
					{
						OFFSET -0.054170 1.746240 0.172020
						CHANNELS 3 Zrotation Yrotation Xrotation
						JOINT Head
						{
							OFFSET 0.104070 1.761360 -0.123970
							CHANNELS 3 Zrotation Yrotation Xrotation
							End Site
							{
								OFFSET 0.000000 0.000000 0.000000
							}
						}
					}
				}
				JOINT LeftShoulder
				{
					OFFSET 0.000000 0.000000 0.000000
					CHANNELS 3 Zrotation Yrotation Xrotation
					JOINT LeftArm
					{
						OFFSET 3.362410 1.200890 -0.311210
						CHANNELS 3 Zrotation Yrotation Xrotation
						JOINT LeftForeArm
						{
							OFFSET 4.983000 -0.000000 -0.000000
							CHANNELS 3 Zrotation Yrotation Xrotation
							JOINT LeftHand
							{
								OFFSET 3.483560 -0.000000 -0.000000
								CHANNELS 3 Zrotation Yrotation Xrotation
								JOINT LeftFingerBase
								{
									OFFSET 0.000000 0.000000 0.000000
									CHANNELS 3 Zrotation Yrotation Xrotation
									JOINT LeftHandIndex1
									{
										OFFSET 0.715260 -0.000000 -0.000000
										CHANNELS 3 Zrotation Yrotation Xrotation
										End Site
										{
											OFFSET 0.000000 0.000000 0.000000
										}
									}
								}
								JOINT LThumb
								{
									OFFSET 0.000000 0.000000 0.000000
									CHANNELS 3 Zrotation Yrotation Xrotation
									End Site
									{
										OFFSET 0.000000 0.000000 0.000000
									}
								}
							}
						}
					}
				}
				JOINT RightShoulder
				{
					OFFSET 0.000000 0.000000 0.000000
					CHANNELS 3 Zrotation Yrotation Xrotation
					JOINT RightArm
					{
						OFFSET -3.136600 1.374050 -0.404650
						CHANNELS 3 Zrotation Yrotation Xrotation
						JOINT RightForeArm
						{
							OFFSET -5.241900 -0.000000 -0.000000
							CHANNELS 3 Zrotation Yrotation Xrotation
							JOINT RightHand
							{
								OFFSET -3.444170 -0.000000 -0.000000
								CHANNELS 3 Zrotation Yrotation Xrotation
								JOINT RightFingerBase
								{
									OFFSET 0.000000 0.000000 0.000000
									CHANNELS 3 Zrotation Yrotation Xrotation
									JOINT RightHandIndex1
									{
										OFFSET -0.622530 -0.000000 -0.000000
										CHANNELS 3 Zrotation Yrotation Xrotation
										End Site
										{
											OFFSET 0.000000 0.000000 0.000000
										}
									}
								}
								JOINT RThumb
								{
									OFFSET 0.000000 0.000000 0.000000
									CHANNELS 3 Zrotation Yrotation Xrotation
									End Site
									{
										OFFSET 0.000000 0.000000 0.000000
									}
								}
							}
						}
					}
				}
			}
		}
	}
}
MOTION
Frames: 12
Frame Time: 0.008333
-4.936114 17.330429 46.277674 179.012423 8.163402 -163.165497 11.842354 -1.733816 -5.510853 -24.880162 -12.786883 -20.993627 -6.319348 9.836828 15.860377 -3.007341 15.119017 14.517634 0.181500 -2.744100 -7.567200 -11.303503 1.922504 -5.357510 23.167993 13.139099 -18.088802 2.848253 -14.209020 28.949366 6.916506 -20.385661 -2.803901 -0.466700 4.381600 -12.152800 -5.485127 2.589844 -11.490543 -0.305433 5.852312 -4.637503 -2.701218 3.418006 6.637129 0.368349 4.958128 -22.786039 5.344004 6.423383 9.998899 -0.548300 3.299100 13.212500 -2.103463 -8.817678 -2.211772 -71.590048 -4.919335 48.212979 36.094986 -38.423303 -20.249719 -0.319409 -3.119816 -36.612235 23.847926 -0.615117 0.913100 -7.125000 0.000000 0.000000 -0.459800 32.062100 0.145600 4.766270 10.604319 -0.226073 72.784117 9.613124 49.293774 -70.047060 50.476297 -48.599314 -0.667125 2.094548 -16.101134 -18.037394 -17.031141 6.143900 7.125000 0.000000 0.000000 10.208200 -49.963300 -1.260600 
-4.921766 17.338627 46.294299 178.930722 8.209886 -163.176704 11.795769 -1.741955 -5.501705 -24.867431 -12.726956 -20.898353 -6.347599 9.704878 15.574701 -3.038718 15.260917 14.658055 0.187300 -2.787700 -7.688100 -11.298950 1.918930 -5.331057 23.121544 13.282384 -18.110447 2.863403 -14.203816 28.869272 6.989638 -20.566274 -2.772069 -0.486900 4.474100 -12.414400 -5.352105 2.570540 -11.343346 -0.273321 5.775046 -4.694750 -2.711605 3.414459 6.175250 0.352121 5.176226 -22.354359 5.326069 6.687487 10.060289 -0.531900 3.406700 13.191200 -2.096761 -8.858238 -2.246328 -72.073827 -4.427204 47.780872 35.941255 -38.323397 -20.106593 -0.350723 -3.124201 -36.572551 24.152072 -0.612367 0.923000 -7.125000 0.000000 0.000000 -0.193500 32.060200 0.061300 4.795424 10.631785 -0.235629 72.789191 9.227926 49.536212 -69.583589 50.339546 -48.105264 -0.638876 2.071586 -16.168362 -18.117818 -15.955935 5.842000 7.125000 0.000000 0.000000 9.756000 -48.850000 -0.934500 
-4.906735 17.345687 46.310240 178.853993 8.248139 -163.171872 11.795313 -1.747076 -5.511894 -24.870505 -12.761239 -20.844443 -6.359422 9.650631 15.436030 -3.097991 15.437102 14.689715 0.201700 -2.891700 -7.977400 -11.285443 1.928291 -5.323181 23.070615 13.500901 -18.077185 2.883665 -14.189844 28.763356 7.085274 -20.802612 -2.756630 -0.470400 4.398800 -12.201500 -5.108232 2.642670 -11.523828 -0.312116 5.879550 -4.681942 -3.052059 3.459382 6.205894 0.676355 5.305194 -21.995379 5.300349 6.707266 10.108090 -0.636800 3.452200 13.077700 -2.123750 -8.845991 -2.211652 -72.112391 -4.332122 47.621752 35.720863 -38.203247 -19.928902 -0.347553 -3.111246 -36.656209 23.917678 -0.835234 0.797800 -7.125000 0.000000 0.000000 -0.384300 31.793400 0.124200 4.811360 10.559525 -0.240751 73.080020 9.065080 49.384194 -69.118152 50.268815 -47.634282 -0.648157 2.079818 -15.500095 -17.343028 -16.725715 5.792500 7.125000 0.000000 0.000000 10.773800 -49.514500 -1.211800 
-4.892160 17.348989 46.316162 178.914572 8.592258 -163.246024 11.765488 -1.740458 -5.523518 -24.761854 -12.805763 -20.583972 -6.333366 9.588574 15.321701 -3.398760 16.080412 14.374849 0.208000 -2.936200 -8.101200 -11.299925 1.920933 -5.296837 23.141800 13.960584 -17.912939 2.923417 -14.179126 28.649732 7.104829 -20.880691 -2.727574 -0.458600 4.344300 -12.047400 -4.831018 2.764478 -11.671161 -0.295706 5.948988 -4.668553 -3.068985 3.486665 6.235736 0.682879 5.385863 -21.746692 5.321017 6.800285 10.168739 -0.634800 3.499500 13.014000 -2.145416 -8.812331 -2.225130 -72.532514 -4.059406 47.200581 35.338521 -37.994749 -19.602669 -0.375640 -3.117122 -36.648759 24.023177 -0.840899 0.794200 -7.125000 0.000000 0.000000 -0.278700 31.776900 0.090200 4.854120 10.501160 -0.236637 72.984580 8.828019 49.848129 -68.387662 50.108026 -46.855305 -0.627350 2.094123 -15.957680 -17.518167 -17.172655 6.002900 7.125000 0.000000 0.000000 10.718400 -50.007700 -1.336700 
-4.876332 17.353886 46.327549 178.930740 8.813271 -163.279412 11.745543 -1.744935 -5.531773 -24.672225 -12.832921 -20.457090 -6.315775 9.556469 15.254274 -3.596591 16.505346 14.172995 0.218400 -3.008800 -8.303200 -11.308547 1.921014 -5.272575 23.183571 14.328094 -17.809134 2.959396 -14.164006 28.526063 7.154402 -21.024085 -2.700733 -0.451300 4.309800 -11.949900 -4.606250 2.845264 -11.740970 -0.284787 5.992800 -4.675090 -3.132540 3.512974 6.123713 0.759096 5.493166 -21.415893 5.331178 6.891117 10.227398 -0.656300 3.550900 12.949900 -2.163027 -8.800886 -2.235579 -72.875391 -3.756685 46.860671 35.014321 -37.807577 -19.324701 -0.396397 -3.118221 -36.661135 24.055064 -0.884003 0.768800 -7.125000 0.000000 0.000000 -0.238200 31.716400 0.077400 4.889640 10.464132 -0.238227 72.984971 8.535574 50.091350 -67.792478 49.973126 -46.232133 -0.614545 2.097521 -15.998351 -17.363551 -17.292166 5.985900 7.125000 0.000000 0.000000 10.893100 -50.102700 -1.384600 
-4.860277 17.358213 46.338822 178.967926 9.040584 -163.305649 11.729054 -1.753768 -5.540775 -24.555538 -12.880610 -20.356139 -6.289882 9.551883 15.242392 -3.811972 16.950193 13.914632 0.231100 -3.094400 -8.541700 -11.321005 1.921885 -5.246676 23.248084 14.713931 -17.696886 3.000869 -14.144044 28.386800 7.201930 -21.165741 -2.677757 -0.442300 4.267400 -11.830300 -4.376516 2.923117 -11.803061 -0.268258 6.025777 -4.684990 -3.172350 3.536148 5.990292 0.819090 5.585132 -21.074474 5.350667 6.964843 10.288482 -0.671800 3.594200 12.886600 -2.183529 -8.787831 -2.250895 -73.230963 -3.424970 46.534452 34.648250 -37.591218 -19.009407 -0.419024 -3.121507 -36.675997 24.083674 -0.895491 0.759000 -7.125000 0.000000 0.000000 -0.198500 31.691200 0.064600 4.927192 10.429224 -0.240033 72.952765 8.200361 50.352450 -67.199832 49.836262 -45.612610 -0.602029 2.101349 -16.074184 -17.216354 -17.395984 5.967100 7.125000 0.000000 0.000000 11.054700 -50.183500 -1.427700 
-4.844677 17.362654 46.350322 179.016631 9.251146 -163.315245 11.710905 -1.767834 -5.548118 -24.408403 -12.991435 -20.253232 -6.263699 9.549921 15.221906 -4.052391 17.450300 13.626567 0.244900 -3.184800 -8.793700 -11.337094 1.923035 -5.221252 23.326582 15.089911 -17.595131 3.044712 -14.122494 28.240741 7.247625 -21.304519 -2.660420 -0.432600 4.220700 -11.698500 -4.148575 2.984554 -11.858753 -0.240614 6.028775 -4.699554 -3.164496 3.548375 5.829829 0.833235 5.668237 -20.720387 5.373967 7.041936 10.352323 -0.675800 3.633900 12.824200 -2.204037 -8.772922 -2.273537 -73.629942 -3.055353 46.213406 34.252274 -37.352707 -18.667743 -0.445017 -3.127031 -36.687188 24.134580 -0.880388 0.763000 -7.125000 0.000000 0.000000 -0.138100 31.695800 0.045000 4.968615 10.397513 -0.240128 72.857717 7.820492 50.640507 -66.624162 49.698965 -45.011788 -0.588367 2.103575 -16.201713 -17.122719 -17.388493 5.936100 7.125000 0.000000 0.000000 11.123100 -50.159200 -1.430000 
-4.829191 17.367322 46.362848 179.064499 9.426277 -163.303379 11.694874 -1.788432 -5.553839 -24.242528 -13.156565 -20.174084 -6.238820 9.557226 15.204496 -4.298697 17.964288 13.325583 0.261100 -3.287400 -9.079900 -11.354467 1.926058 -5.197399 23.405252 15.437808 -17.515207 3.089869 -14.098968 28.088884 7.293949 -21.443998 -2.650114 -0.419500 4.157400 -11.519900 -3.926846 3.028316 -11.916256 -0.207525 6.010384 -4.719844 -3.136892 3.554853 5.632407 0.832355 5.743294 -20.320743 5.396229 7.107616 10.417284 -0.681600 3.666700 12.750000 -2.226094 -8.756440 -2.298880 -74.035684 -2.643707 45.941660 33.839940 -37.100721 -18.312860 -0.472319 -3.134141 -36.701865 24.189854 -0.848511 0.775700 -7.125000 0.000000 0.000000 -0.072700 31.719400 0.023600 5.011856 10.364997 -0.239400 72.733523 7.377488 50.913111 -66.090302 49.570729 -44.457679 -0.576013 2.103541 -16.321666 -17.020797 -17.286244 5.873600 7.125000 0.000000 0.000000 11.168000 -50.035800 -1.401700 
-4.814615 17.371763 46.375146 179.106920 9.576837 -163.277751 11.683638 -1.811432 -5.560364 -24.072794 -13.383944 -20.092931 -6.216247 9.567188 15.177818 -4.560409 18.512461 12.996219 0.278000 -3.391200 -9.369800 -11.371524 1.930036 -5.179774 23.477860 15.750038 -17.448697 3.133414 -14.074405 27.940067 7.338119 -21.576376 -2.644794 -0.403900 4.080100 -11.302000 -3.693790 3.064625 -12.001586 -0.175270 5.982340 -4.730686 -3.127111 3.551045 5.520535 0.844534 5.817752 -20.017480 5.414408 7.177832 10.485846 -0.688900 3.702000 12.701600 -2.248555 -8.732741 -2.321566 -74.401735 -2.306726 45.708129 33.409891 -36.832866 -17.943296 -0.502101 -3.142227 -36.727663 24.256745 -0.811958 0.790800 -7.125000 0.000000 0.000000 0.004400 31.747200 -0.001400 5.056532 10.327332 -0.236772 72.583713 7.005366 51.161130 -65.574220 49.449091 -43.923788 -0.564447 2.106773 -16.485142 -16.944984 -17.286093 5.851700 7.125000 0.000000 0.000000 11.222500 -50.023500 -1.405300 
-4.800382 17.375635 46.387102 179.136226 9.714972 -163.246579 11.672700 -1.834171 -5.567628 -23.919706 -13.595116 -20.026267 -6.196976 9.574782 15.145314 -4.807425 19.026571 12.672602 0.296900 -3.503800 -9.684700 -11.389518 1.934870 -5.165707 23.534457 16.036856 -17.396810 3.173504 -14.052351 27.803417 7.375162 -21.689358 -2.647458 -0.385200 3.985900 -11.036900 -3.483836 3.089627 -12.077587 -0.139103 5.939135 -4.738112 -3.091453 3.537548 5.454921 0.831939 5.885578 -19.832656 5.433436 7.259457 10.559629 -0.684000 3.738600 12.698700 -2.268850 -8.707291 -2.349313 -74.760191 -2.027619 45.515812 32.969901 -36.549954 -17.563894 -0.536142 -3.148410 -36.753123 24.345041 -0.794468 0.795200 -7.125000 0.000000 0.000000 0.100700 31.749700 -0.032600 5.102041 10.297534 -0.234162 72.382571 6.680625 51.388135 -65.083576 49.329569 -43.417964 -0.554092 2.112303 -16.665798 -16.879866 -17.345807 5.851600 7.125000 0.000000 0.000000 11.288300 -50.075900 -1.428400 
-4.785579 17.379051 46.398831 179.144821 9.852142 -163.212892 11.664991 -1.854704 -5.575760 -23.791157 -13.797675 -19.959398 -6.181753 9.575818 15.098645 -5.048582 19.527142 12.345886 0.318200 -3.626200 -10.027400 -11.406698 1.941619 -5.155036 23.566573 16.311306 -17.358360 3.208353 -14.036610 27.686442 7.405358 -21.782735 -2.661612 -0.366300 3.887900 -10.761400 -3.293707 3.109142 -12.172007 -0.108003 5.898555 -4.739157 -3.072856 3.521824 5.437815 0.848145 5.955650 -19.685132 5.450012 7.338286 10.630405 -0.687500 3.777100 12.700100 -2.289221 -8.676147 -2.370878 -75.053890 -1.784911 45.395796 32.541561 -36.273263 -17.197421 -0.569237 -3.155768 -36.795518 24.428156 -0.770590 0.803100 -7.125000 0.000000 0.000000 0.193300 31.760200 -0.062600 5.147928 10.261813 -0.230439 72.188856 6.398304 51.593072 -64.610652 49.217014 -42.932633 -0.543510 2.117716 -16.857637 -16.837399 -17.388427 5.854900 7.125000 0.000000 0.000000 11.325900 -50.114600 -1.444100 
-4.770092 17.381556 46.410218 179.126967 9.999609 -163.187852 11.656002 -1.869456 -5.586132 -23.708887 -13.906722 -19.907116 -6.171103 9.566378 15.046434 -5.249288 19.935334 12.056540 0.342500 -3.760700 -10.404300 -11.424561 1.949369 -5.145836 23.570671 16.581693 -17.329156 3.236162 -14.029770 27.597575 7.425716 -21.849020 -2.690970 -0.348500 3.793000 -10.495000 -3.145132 3.119305 -12.246667 -0.076623 5.851361 -4.736144 -3.045273 3.499456 5.463550 0.895840 6.049072 -19.661182 5.457810 7.452245 10.704704 -0.698600 3.832400 12.756000 -2.301609 -8.646176 -2.393362 -75.308935 -1.607375 45.327327 32.117443 -35.991725 -16.833906 -0.603744 -3.161787 -36.853583 24.512741 -0.757490 0.804300 -7.125000 0.000000 0.000000 0.287800 31.755600 -0.093300 5.198690 10.235755 -0.226713 71.972331 6.180906 51.776237 -64.178712 49.110275 -42.490573 -0.533879 2.126037 -17.066057 -16.826755 -17.514683 5.894800 7.125000 0.000000 0.000000 11.362900 -50.245900 -1.486000 
